<?xml version="1.0" encoding="UTF-8" standalone="no"?>
<!-- Created with Inkscape (http://www.inkscape.org/) -->

<svg
   version="1.1"
   id="svg1"
   width="1024"
   height="1024"
   viewBox="0 0 1024 1024"
   sodipodi:docname="icon.svg"
   inkscape:version="1.4.3 (0d15f75, 2025-12-25)"
   xmlns:inkscape="http://www.inkscape.org/namespaces/inkscape"
   xmlns:sodipodi="http://sodipodi.sourceforge.net/DTD/sodipodi-0.dtd"
   xmlns="http://www.w3.org/2000/svg"
   xmlns:svg="http://www.w3.org/2000/svg">
  <defs
     id="defs1" />
  <sodipodi:namedview
     id="namedview1"
     pagecolor="#ffffff"
     bordercolor="#000000"
     borderopacity="0.25"
     inkscape:showpageshadow="2"
     inkscape:pageopacity="0.0"
     inkscape:pagecheckerboard="0"
     inkscape:deskcolor="#d1d1d1"
     inkscape:zoom="1.1396484"
     inkscape:cx="511.56127"
     inkscape:cy="526.03942"
     inkscape:window-width="2560"
     inkscape:window-height="1369"
     inkscape:window-x="2552"
     inkscape:window-y="-8"
     inkscape:window-maximized="1"
     inkscape:current-layer="g1" />
  <g
     inkscape:groupmode="layer"
     inkscape:label="Image"
     id="g1">
    <path
       style="fill:#000000"
       d="m 271.35309,960.07366 c -5.47616,-3.33917 -6.21596,-8.60761 -3.1698,-22.57366 5.20148,-23.84777 26.02398,-22.9622 23.51296,1 -1.80515,17.22627 -11.17571,27.16363 -20.34316,21.57366 z m 462.73078,-2.83595 c -13.44435,-13.44435 -7.08616,-44.61764 7.49835,-36.76336 7.08865,3.81748 13.22909,26.15991 9.30074,33.84139 -3.21414,6.28492 -11.9216,7.79947 -16.79909,2.92197 z m 99.23005,-4.7017 c -3.95314,-1.71932 -7.26016,-6.68592 -11.3326,-17.0197 -21.99671,-55.81635 -66.99553,-103.06299 -124.10139,-130.3006 -0.34104,-0.16267 -2.14104,2.0801 -4,4.98392 -76.68721,119.79064 -287.7881,126.98551 -368.23401,12.55037 -7.8419,-11.15518 -6.90763,-10.72887 -14.41107,-6.5759 -56.2564,31.13656 -89.12612,66.6229 -111.83143,120.73383 -5.13353,12.23414 -11.2676,15.92685 -20.12623,12.11597 -13.59698,-5.84926 -13.14096,-12.59713 3.00253,-44.42964 26.41525,-52.08688 68.86775,-92.0822 129.78131,-122.2695 46.23657,-22.91374 49.83798,-24.3163 58.56467,-22.80789 10.47289,1.81023 22.38081,-11.21583 25.22973,-27.59878 C 398.16758,718.62193 398.53205,719.27268 385.25977,713 339.51589,691.38074 303.5046,656.10691 280.75024,610.63065 274.31097,597.7613 274.31097,597.7613 262.90549,597.58246 180.43041,596.28926 145.49881,464.12279 217.61884,426.23687 c 6.11884,-3.21434 6.11884,-3.21434 4.27875,-9.85029 -9.4041,-33.91411 -0.17893,-92.68226 20.81663,-132.61052 1.52587,-2.90183 2.93855,-5.6485 3.13927,-6.10371 0.20072,-0.45521 -1.63168,-0.52824 -4.072,-0.16229 -64.70831,9.70361 -124.42311,-62.37745 -103.39207,-124.80339 40.23599,-119.4316 243.33441,-111.467018 217.85662,8.54333 -1.64461,7.74674 -1.55963,10.68444 0.22552,7.79602 3.85538,-6.23814 49.37144,-25.94099 75.42411,-32.64935 58.82296,-15.14647 95.07191,-5.44131 81.61565,21.85148 -2.25455,4.57279 -2.6278,6.2086 -1.82541,8 5.47308,12.21915 -1.49643,60.79291 -10.68769,74.48739 -43.18612,64.34503 -133.93654,126.77557 -194.65768,133.91215 -5.2431,0.61622 -5.35718,0.70005 -6.45023,4.73981 -5.58389,20.63741 -8.60637,43.17312 -9.83792,73.35177 -1.13425,27.79428 -1.80139,30.18117 -9.01375,32.24965 -6.55607,1.88026 -13.25558,-4.32065 -17.16031,-15.88317 -4.28635,-12.6926 -9.73067,-16.88958 -22.09082,-17.02967 -50.86838,-0.57653 -43.7547,101.24529 7.99615,114.4531 19.74098,5.03827 20.38555,-2.33567 3.63015,-41.52918 -6.76721,-15.82957 -3.62744,-25.00956 8.82503,-25.80247 14.20207,-0.90432 17.08472,3.3227 23.73382,34.80247 C 309.57704,645.75357 389.05723,709.4037 505,709.4037 c 116.57426,0 203.09928,-68.62077 220.53886,-174.9037 4.26932,-26.01874 7.01555,-30.50268 18.67902,-30.49845 14.55493,0.005 16.81736,8.24866 8.78212,31.99845 -7.90838,23.37484 -6.58385,28.77085 6.8037,27.71761 52.5791,-4.13653 68.41204,-111.89548 16.41135,-111.69565 -11.45669,0.044 -17.12837,4.96168 -21.28632,18.4564 -7.80328,25.32568 -23.90053,18.48901 -23.94849,-10.17118 C 730.93796,435.04119 725.28942,397.15325 718.374,375.75 716.83927,371 716.83927,371 712.02911,371 660.75782,371 538.07713,276.34115 521.51272,224 c -2.81165,-8.8844 -3.48208,-20.64693 -2.72273,-47.76946 0.25817,-9.2212 5.883,-14.47376 14.8338,-13.85204 2.93664,0.20398 5.09608,-0.0227 4.79876,-0.50382 C 538.12523,161.39361 537.0297,161 535.98804,161 c -8.20086,0 -14.64386,-11.96352 -10.62669,-19.73187 9.75087,-18.85611 89.39301,-5.71478 137.58953,22.70291 6.49244,3.82808 6.15576,4.25501 5.05536,-6.41058 -8.97669,-87.006134 122.88826,-123.919623 189.8231,-53.13795 68.79704,72.7509 16.64425,188.57983 -76.64647,170.22825 -4.31714,-0.84924 -4.31714,-0.84924 -1.86335,4 17.11361,33.82039 24.66413,99.40208 15.75134,136.81167 -1.79196,7.52141 -1.79196,7.52141 4.39574,10.98177 59.27901,33.15071 47.5684,129.8629 -19.62386,162.06393 -12.59679,6.03684 -20.35976,7.11712 -37.69963,5.24617 -2.07573,-0.22396 -3.09213,1.17716 -8.5205,11.7457 -25.92333,50.47036 -74.29749,97.55829 -113.72445,110.70061 -0.99928,0.3331 -1.01069,1.93054 -0.0561,7.85874 2.8682,17.81213 11.31487,29.9282 19.76512,28.35144 2.35363,-0.43918 4.86446,0.30517 10.35323,3.06927 3.98534,2.00699 11.13711,5.01494 15.89283,6.68435 90.05306,31.61152 136.80727,68.96537 172.52288,137.83559 18.7781,36.20973 19.79936,47.62867 4.72466,52.82767 -4.28561,1.47803 -5.82328,1.4322 -9.78686,-0.29166 z M 527.32791,877.93338 c 56.87768,-4.98412 105.66883,-29.1378 138.63075,-68.62808 9.60379,-11.5059 9.44365,-10.40285 1.99554,-13.74537 -6.0458,-2.71319 -6.0458,-2.71319 -8.22263,0.11344 -69.88592,90.74753 -243.86454,90.57251 -303.40992,-0.30522 -1.55971,-2.38042 -1.55971,-2.38042 -8.44068,1.33615 -8.34321,4.50636 -8.33439,4.37034 -0.88378,13.63199 38.91646,48.37596 107.2721,73.99911 180.33072,67.59709 z m 14.37756,-45.80511 c 43.37456,-8.27068 98.17235,-42.19466 82.04272,-50.79065 C 607.99693,772.94327 593,748.50088 593,731.22341 c 0,-2.0828 -0.34242,-2.35302 -2.25,-1.77558 -41.05965,12.42908 -106.78067,13.5111 -156.85412,2.58241 -10.92574,-2.38457 -9.67982,-3.18784 -12.52725,8.07647 -4.95166,19.58849 -15.01023,33.30065 -30.29697,41.30177 -7.42834,3.88801 -7.42834,3.88801 1.5,12.5119 34.06118,32.89973 95.04022,48.52248 149.13381,38.20789 z M 261.41351,333.78131 c 12.70502,-46.91222 42.58256,-92.2538 79.83649,-121.15837 9.8289,-7.62604 10.99645,-9.10757 4,-5.07566 -44.61956,25.71331 -82.63276,83.31692 -87.73684,132.95272 -0.82161,7.98995 0.56267,5.60542 3.90035,-6.71869 z m 436.7082,3.13458 C 682.94036,330.17924 647.75547,305.76976 609.5942,275.5 c -3.46694,-2.75 -10.08143,-7.91138 -14.69886,-11.46973 -4.61744,-3.55835 -15.75308,-12.89585 -24.74587,-20.75 C 561.15668,235.42612 553.33992,229 552.7789,229 c -1.87126,0 48.95149,48.22669 64.2211,60.94064 26.14211,21.76673 72.49262,48.74855 84,48.89853 0.825,0.0108 -0.47023,-0.85472 -2.87829,-1.92328 z M 352.5,328.01754 c 38.70418,-19.15677 74.60411,-47.8979 105.59484,-84.53818 C 468.43056,231.25946 476.74691,219 474.70071,219 c -0.1646,0 -2.96634,3.2625 -6.22608,7.25 C 441.84382,258.82634 389.83454,301.81586 342,330.79065 c -13.58098,8.2264 -9.59802,7.17447 10.5,-2.77311 z M 712.36891,315.75 c -3.00754,-6.61503 -55.46519,-46.32529 -75.4511,-57.11624 -8.59122,-4.63863 -12.53719,-6.11414 -7.89032,-2.9504 1.35988,0.92585 14.79552,10.93835 29.85697,22.25 50.73586,38.10431 54.9794,41.10474 53.48445,37.81664 z m 38.9768,-10.43218 c -1.27879,-16.23779 -19.16077,-45.70252 -38.61925,-63.63419 -20.33681,-18.7411 -26.82579,-22.6702 -13.42738,-8.13034 20.9154,22.69726 33.3326,40.02993 44.42515,62.01129 7.27851,14.42332 8.06893,15.43483 7.62148,9.75324 z M 351,293.056 C 380.57318,272.21291 431.29275,231 427.37057,231 c -2.95882,0 -65.33737,46.65393 -82.36405,61.60141 -20.61343,18.09625 -19.19049,18.20418 5.99348,0.45459 z m 354.14756,-19.44913 c -13.08346,-15.53685 -33.56448,-32.55034 -53.42488,-44.37982 -13.21564,-7.87165 -39.26648,-20.56106 -40.93197,-19.93803 -0.8707,0.32572 -0.6399,0.76401 0.70929,1.34691 3.64272,1.57378 31.85448,18.58731 40.5,24.42414 14.29875,9.65347 47.66053,36.69811 55.98622,45.38508 6.3837,6.66071 4.29827,1.63696 -2.83866,-6.83828 z M 359.5,237.08493 c 16.46488,-12.30502 40.7406,-27.4258 66.74762,-41.57552 12.3489,-6.7187 13.15711,-7.84258 2.62906,-3.65589 -41.30388,16.42531 -74.25908,38.73253 -99.93638,67.64648 -8.24869,9.28844 -7.47625,8.91626 7.0597,-3.40156 7.975,-6.75805 18.55,-15.31413 23.5,-19.01351 z m 480.43776,-11.29329 c 10.57617,-10.76642 16.75023,-24.77794 17.75418,-40.29164 0.72159,-11.15048 -0.0267,-10.78765 -2.06227,1 -2.6919,15.58812 -9.46249,28.72379 -21.51765,41.74653 -7.28174,7.86618 -2.21607,5.73158 5.82574,-2.45489 z m -244.97347,2.82501 C 581.56238,215.95554 550,192.98473 550,195.89207 c 0,1.90039 42.74258,33.92032 45.46429,34.05885 0.53035,0.027 0.30535,-0.57343 -0.5,-1.33427 z m 205.22785,-7.931 c 9.90506,-7.41397 19.98077,-19.8176 25.7162,-31.65771 4.26962,-8.81412 3.1836,-8.63055 -2.85091,0.48188 -7.32114,11.05531 -15.8945,21.25164 -24.66113,29.32955 -8.24561,7.59781 -7.25239,8.61893 1.79584,1.84628 z M 175.60087,218.75 c -16.28696,-27.87244 -11.59062,-58.68773 14.16112,-92.91909 6.89993,-9.17195 6.12855,-9.70074 -1.69544,-1.16223 -26.40241,28.81357 -32.67814,72.56834 -13.63749,95.08132 3.74065,4.42282 4.14095,4.08121 1.17181,-1 z m 586.50847,-6.84472 c 11.84802,-10.26412 45.18115,-49.56704 49.53398,-58.40528 1.92683,-3.91233 -0.59646,-1.25119 -16.14332,17.0253 -12.99886,15.28113 -34.15388,38.96328 -37.8746,42.39901 -2.48611,2.2957 -3.36447,4.07569 -2.01119,4.07569 0.33782,0 3.26063,-2.29262 6.49513,-5.09472 z M 661.39627,204.04642 C 647.64384,195.05737 632.1045,186.96181 617.5,181.17772 c -18.12318,-7.17767 -54.27211,-18.73894 -55.31881,-17.69225 -0.25709,0.2571 0.38446,0.74265 1.42568,1.07901 1.04122,0.33636 4.09064,1.47195 6.77648,2.52354 2.68585,1.05159 5.2945,1.91198 5.79701,1.91198 5.93532,0 57.99258,22.69175 82.31964,35.88311 16.95259,9.19255 17.84546,8.93462 2.89627,-0.83669 z M 219.1835,200.75 c 4.15817,-3.9875 17.90167,-18.275 30.54111,-31.75 12.63944,-13.475 26.64708,-27.99221 31.12809,-32.26047 4.48102,-4.26826 8.1473,-8.20576 8.1473,-8.75 0,-8.67819 -56.15902,47.77885 -74.8632,75.26047 -4.2463,6.23899 -3.87403,6.05458 5.0467,-2.5 z m 52.44285,-12 C 290.4128,170.29874 297.72328,162.38995 296.82371,161.49038 296.37816,161.04482 250,206.59336 250,207.47649 c 0,2.00789 4.35365,-1.76199 21.62635,-18.72649 z m 453.37852,3.91318 c -17.22881,-30.21051 -14.38304,-52.33524 11.19441,-87.0321 8.55567,-11.606127 7.66764,-13.095628 -2.31388,-3.88108 -26.69514,24.64391 -31.56885,69.29904 -10.29864,94.3608 5.54953,6.53877 6.20479,4.94575 1.41811,-3.44762 z M 388.69538,184.4522 c 17.0651,-8.13703 37.69101,-15.78855 53.53779,-19.86072 5.44657,-1.39962 12.19967,-4.38414 7.26683,-3.21156 -1.1,0.26147 -4.475,0.77076 -7.5,1.13174 -10.39688,1.24069 -28.69406,7.31032 -49.30517,16.35576 -5.1716,2.26961 -16.93322,8.99604 -20.19483,11.54934 -3.11121,2.43557 4.31212,-0.29836 16.19538,-5.96456 z M 773.00729,154 c 23.26077,-25.87302 37.13695,-43.18909 35.73383,-44.59222 -0.29648,-0.29647 -2.27202,1.3975 -4.39009,3.7644 -2.11807,2.3669 -7.0223,7.68393 -10.89829,11.81564 -8.90487,9.49235 -16.87626,18.80495 -26.97377,31.51218 -4.37045,5.5 -9.68503,12.025 -11.81019,14.5 -15.31824,17.83993 -1.30486,4.84938 18.33851,-17 z m -564.47509,1.61469 c 17.77246,-21.86032 35.29051,-38.41953 56.75777,-53.65116 11.40547,-8.092505 5.01821,-10.601294 -16.60648,-6.522694 -7.99008,1.506996 -13.47667,3.992312 -6.59718,2.988392 5.21199,-0.760584 22.36923,-2.160274 22.75135,-1.856059 0.18572,0.147852 -2.73928,2.298402 -6.5,4.779001 -18.10759,11.94391 -43.55968,38.31652 -55.2372,57.23495 -8.33615,13.50516 -7.66674,13.13884 5.43174,-2.97243 z M 329.72805,137.5 c -0.60375,-9.58858 -4.21286,-19.36984 -9.37038,-25.39524 -5.78899,-6.76314 -7.1625,-5.25377 -2.46657,2.71055 4.83015,8.19195 8.36561,19.75843 8.92071,29.18469 0.50056,8.5 0.50056,8.5 1.96026,5 1.04443,-2.50428 1.3164,-5.77594 0.95598,-11.5 z m 444.86461,-24.86356 c 8.50443,-11.35725 11.87651,-17.303107 9.81313,-17.303107 -2.45525,0 -22.47038,26.576257 -28.4997,37.842147 -1.94769,3.63929 12.3454,-12.07073 18.68657,-20.53904 z M 488.5,638.53718 C 448.60893,631.2296 412.41203,601.37884 427.522,588.25 c 4.77189,-4.14623 9.72947,-2.66187 20.978,6.28107 35.88995,28.53363 90.44161,27.01906 131.05961,-3.63873 17.7613,-13.40594 27.43086,0.34024 12.31729,17.51017 -20.75852,23.58292 -66.44394,36.90036 -103.3769,30.13467 z m 5.37836,-69.9345 c -27.86856,-8.01973 -31.5822,-40.89995 -6.51441,-57.67792 14.98965,-10.03262 23.85052,-0.53244 14.15472,15.17599 C 493.83893,538.54292 495.42761,542 508.82511,542 c 18.15004,0 26.16724,8.29926 19.14448,19.81803 -4.13837,6.78778 -21.839,10.31047 -34.09123,6.78465 z m -86.27404,-60.64111 c -20.4357,-6.11533 -23.54337,-55.27143 -4.23849,-67.04297 15.40659,-9.39448 29.64757,9.23909 28.34,37.0814 -1.06547,22.68727 -10.25108,34.10628 -24.10151,29.96157 z M 600,506.55427 c -18.62523,-10.17425 -14.22758,-64.41933 5.52286,-68.12454 13.50055,-2.53271 22.47192,11.45625 22.51931,35.1141 0.0501,25.00933 -13.49661,40.95612 -28.04217,33.01044 z M 363.87941,409.18356 c -8.92744,-7.97667 1.03502,-22.18119 22.66655,-32.31807 28.94905,-13.56598 65.80713,-5.3457 61.04822,13.61529 -1.32215,5.26788 -4.30477,6.01711 -24.05065,6.04153 -21.14747,0.0262 -27.54637,1.59915 -42.54123,10.45756 -9.78171,5.77868 -12.70126,6.15442 -17.12289,2.20369 z m 282.23965,-2.66747 c -19.18595,-10.33867 -30.70419,-13.05264 -51.71646,-12.18561 -20.41914,0.84255 -26.61035,-2.89055 -21.94654,-13.23304 10.31734,-22.87976 71.73118,-14.78593 89.59149,11.80742 8.73906,13.01216 -1.2306,21.53145 -15.92849,13.61123 z"
       id="path" />
  </g>
</svg>
